# xmcd
#
# Track frame offsets:
#	187
#	10235
#	21965
#	34780
#	47497
#	60232
#	72930
#	84485
#	96967
#	111562
#	125480
#	135072
#	148745
#	162092
#	172350
#	184610
#	196390
#	211542
#	225027
#	234440
#
# Disc length: 3287
#
# Revision: 1
# Processed by: cddbd v1.5.1PL0 Copyright (c) Steve Scherf et al.
# Submitted via: audiograbber 1.80
# Normalized: r0:DSETVAR1
#
DISCID=020cd514
DTITLE=Various Artist - Country Songs That Will Live Forever [CD1]
DYEAR=1900
DGENRE=
TTITLE0=Eddy Arnold - What's He Doing In My World
TTITLE1=Patsy Cline - Walkin' After Midnight
TTITLE2=Johnny Cash - Folsom Prison Blues
TTITLE3=Hank Snow - Hello Love
TTITLE4=Roy Alcuff And His Smoky Mountain Boys - Wabash CannonBall
TTITLE5=Red Foley - Alabama Jubilee
TTITLE6=Loretta Lynn - Love Is The Foundation
TTITLE7=Hank Williams - Cold Cold Heart
TTITLE8=Tennessee Ernie Ford - The Cry Of The Wild Goose
TTITLE9=Marty Robbins - Twentieth Century Drifter
TTITLE10=Jim Reeves - Billy Bayou
TTITLE11=Pee Wee King And His Golden West Cowboys - Tennessee Waltz
TTITLE12=Jimmie Rodgers And The Rainbow Ranch Boys - In The Jailhouse Now Number 2
TTITLE13=Kitty Wells - I Can't Stop Loving You
TTITLE14=Ernest Tubbs - I Love You Because
TTITLE15=Bill Monroe And His Blue Grass Boys - Gotta Travel On
TTITLE16=Owen Bradley Quintet With Jack Shook And Dottie Dillard - Blues Stay Away From Me
TTITLE17=Hank Thompson And Merle Travis - Wildwood Flower
TTITLE18=Chet Atkins - Yakety Axe
TTITLE19=Lester Flatt And Earl Scruggs - Foggy Mountain Breakdown (Bonnie and Clyde Theme)
EXTD=
EXTT0=
EXTT1=
EXTT2=
EXTT3=
EXTT4=
EXTT5=
EXTT6=
EXTT7=
EXTT8=
EXTT9=
EXTT10=
EXTT11=
EXTT12=
EXTT13=
EXTT14=
EXTT15=
EXTT16=
EXTT17=
EXTT18=
EXTT19=
PLAYORDER=
